<?xml version="1.0" encoding="iso-8859-1"?>
<!-- Uploaded to: SVG Repo, www.svgrepo.com, Generator: SVG Repo Mixer Tools -->
<!DOCTYPE svg PUBLIC "-//W3C//DTD SVG 1.1//EN" "http://www.w3.org/Graphics/SVG/1.1/DTD/svg11.dtd">
<svg fill="#e26e70" height="800px" width="800px" version="1.1" id="Capa_1" xmlns="http://www.w3.org/2000/svg" xmlns:xlink="http://www.w3.org/1999/xlink" 
	 viewBox="0 0 58.011 58.011" xml:space="preserve">
<g>
	<path d="M39.338,7.422l-0.105,0.03c0.85,1.506,2.392,3.767,4.973,6.347c2.581,2.581,4.84,4.123,6.282,4.963l0.044,0.018
		c0.013,0,0.044-0.019,0.061-0.048c-0.85-1.507-2.393-3.767-4.973-6.347C43.04,9.805,40.78,8.262,39.338,7.422z"/>
	<path d="M49.862,8.142c-4.943-4.942-10.46-8.136-14.057-8.136c-1.226,0-2.207,0.358-2.914,1.065
		c-1.449,1.449-1.41,4.089,0.11,7.435c1.384,3.044,3.856,6.431,6.96,9.535c4.942,4.943,10.46,8.137,14.057,8.137
		c1.226,0,2.207-0.358,2.914-1.065C60.148,21.897,55.689,13.97,49.862,8.142z M52.327,19.728c-0.373,0.649-1.061,1.052-1.795,1.052
		c-0.362,0-0.726-0.1-1.051-0.289c-1.543-0.899-3.957-2.545-6.689-5.277c-2.732-2.732-4.377-5.146-5.277-6.689
		c-0.379-0.651-0.386-1.425-0.016-2.068c0.557-0.969,1.861-1.335,2.846-0.762c1.544,0.899,3.958,2.546,6.689,5.277
		c2.731,2.731,4.377,5.146,5.276,6.688C52.69,18.312,52.697,19.085,52.327,19.728z"/>
	<path d="M31.182,9.334c-0.868-1.909-1.243-3.493-1.322-4.808c-3.292,4.188-6.376,9.559-8.342,14.669
		c-2.309,6.003-2.872,10.947-1.692,14.357l-6.407,6.407c-2.139,2.138-5.049,3.236-8.108,3.056c-0.481-0.027-0.982,0.011-1.473,0.124
		c-1.83,0.418-3.283,1.868-3.703,3.694c-0.35,1.523-0.003,3.086,0.953,4.285c0.743,0.934,1.771,1.558,2.913,1.788
		c-0.026,1.036,0.334,2.275,1.761,3.681c0.93,0.915,2.09,1.418,3.268,1.418l0.125-0.001c2.718-0.083,4.846-2.278,4.846-5.055
		c-0.037-3.243,1.05-6.136,3.059-8.145l6.843-6.842c1.264,0.539,2.762,0.819,4.496,0.819c7.531,0,18.023-5.069,25.073-10.63
		c-4.126-0.273-9.773-3.547-14.921-8.696C35.279,16.186,32.663,12.591,31.182,9.334z M22.122,36.912l-6.478,6.479
		c-2.393,2.393-3.687,5.795-3.645,9.615c0,1.632-1.277,2.949-2.907,2.998l-0.064,0.001c-0.649,0-1.312-0.3-1.865-0.844
		c-1.333-1.312-1.25-2.159-1.051-2.915l0.337-1.281l-1.324,0.026C5.059,50.993,4.994,51,4.999,51.006
		c-0.919,0-1.775-0.413-2.348-1.133c-0.583-0.731-0.784-1.652-0.568-2.592c0.246-1.067,1.129-1.948,2.199-2.193
		c0.305-0.069,0.615-0.095,0.905-0.077c3.625,0.229,7.1-1.092,9.646-3.638l5.934-5.934c0.02,0.03,0.047,0.052,0.067,0.082
		c0.227,0.322,0.47,0.629,0.745,0.905C21.748,36.596,21.93,36.758,22.122,36.912z M38.49,31.192
		c-3.058,1.722-6.668,3.104-9.581,3.104c-1.571,0.001-2.938-0.401-3.906-1.37c-0.914-0.914-1.376-2.234-1.374-3.922
		c0.001-0.553,0.448-0.999,1-0.999c0,0,0.001,0,0.001,0c0.552,0.001,1,0.449,0.999,1.002c-0.001,1.138,0.263,1.98,0.788,2.505
		c1.574,1.575,6.136,0.727,11.091-2.063c0.483-0.272,1.091-0.101,1.362,0.381C39.141,30.312,38.971,30.922,38.49,31.192z
		 M40.136,25.234c-0.193,0.284-0.507,0.437-0.827,0.437c-0.194,0-0.391-0.057-0.563-0.174c-1.036-0.708-2.057-1.563-3.035-2.54
		c-0.978-0.979-1.832-1.999-2.539-3.033c-0.414-0.606-1.112-0.93-1.847-0.917c-0.747,0.032-1.408,0.436-1.771,1.078
		c-0.634,1.127-1.182,2.264-1.628,3.377c-0.205,0.512-0.786,0.761-1.3,0.557c-0.513-0.205-0.762-0.787-0.557-1.301
		c0.478-1.194,1.064-2.41,1.742-3.614c0.704-1.249,1.984-2.032,3.426-2.095c1.443-0.065,2.779,0.605,3.584,1.787
		c0.637,0.932,1.412,1.856,2.302,2.747c0.89,0.89,1.814,1.664,2.748,2.302C40.33,24.156,40.447,24.778,40.136,25.234z"/>
</g>
</svg>